<svg width="1468" height="1996" xmlns="http://www.w3.org/2000/svg" xmlns:xlink="http://www.w3.org/1999/xlink" overflow="hidden"><defs><clipPath id="clip0"><path d="M-289-5 1179-5 1179 1991-289 1991Z" fill-rule="evenodd" clip-rule="evenodd"/></clipPath></defs><g clip-path="url(#clip0)" transform="translate(289 5)"><path d="M960.63 0.974081 960.63 239.278" stroke="#000000" stroke-width="2.08333" stroke-linejoin="round" stroke-miterlimit="10" fill="none" fill-rule="evenodd"/><path d="M1039.37 0.974081 1039.37 239.278" stroke="#000000" stroke-width="2.08333" stroke-linejoin="round" stroke-miterlimit="10" fill="none" fill-rule="evenodd"/><path d="M880.848 80.7559 1119.15 80.7559" stroke="#000000" stroke-width="2.08333" stroke-linejoin="round" stroke-miterlimit="10" fill="none" fill-rule="evenodd"/><path d="M880.848 159.496 1119.15 159.496" stroke="#000000" stroke-width="2.08333" stroke-linejoin="round" stroke-miterlimit="10" fill="none" fill-rule="evenodd"/><path d="M881.89 0.974081 881.89 239.278" stroke="#000000" stroke-width="2.08333" stroke-linejoin="round" stroke-miterlimit="10" fill="none" fill-rule="evenodd"/><path d="M1118.11 0.974081 1118.11 239.278" stroke="#000000" stroke-width="2.08333" stroke-linejoin="round" stroke-miterlimit="10" fill="none" fill-rule="evenodd"/><path d="M880.848 2.01575 1119.15 2.01575" stroke="#000000" stroke-width="2.08333" stroke-linejoin="round" stroke-miterlimit="10" fill="none" fill-rule="evenodd"/><path d="M880.848 238.236 1119.15 238.236" stroke="#000000" stroke-width="2.08333" stroke-linejoin="round" stroke-miterlimit="10" fill="none" fill-rule="evenodd"/><text font-family="Fira Code,Fira Code_MSFontService,sans-serif" font-weight="400" font-size="38" transform="translate(910.062 53)">2<tspan x="78.7401" y="0">8</tspan><tspan x="157.48" y="0">3</tspan><tspan x="0" y="79">1</tspan><tspan x="78.7401" y="79">6</tspan><tspan x="157.48" y="79">4</tspan><tspan x="0" y="157">7</tspan><tspan x="157.48" y="157">5</tspan></text><path d="M728.457 1746.41 728.457 1984.71" stroke="#000000" stroke-width="2.08333" stroke-linejoin="round" stroke-miterlimit="10" fill="none" fill-rule="evenodd"/><path d="M807.197 1746.41 807.197 1984.71" stroke="#000000" stroke-width="2.08333" stroke-linejoin="round" stroke-miterlimit="10" fill="none" fill-rule="evenodd"/><path d="M648.675 1826.19 886.979 1826.19" stroke="#000000" stroke-width="2.08333" stroke-linejoin="round" stroke-miterlimit="10" fill="none" fill-rule="evenodd"/><path d="M648.675 1904.93 886.979 1904.93" stroke="#000000" stroke-width="2.08333" stroke-linejoin="round" stroke-miterlimit="10" fill="none" fill-rule="evenodd"/><path d="M649.717 1746.41 649.717 1984.71" stroke="#000000" stroke-width="2.08333" stroke-linejoin="round" stroke-miterlimit="10" fill="none" fill-rule="evenodd"/><path d="M885.938 1746.41 885.938 1984.71" stroke="#000000" stroke-width="2.08333" stroke-linejoin="round" stroke-miterlimit="10" fill="none" fill-rule="evenodd"/><path d="M648.675 1747.45 886.979 1747.45" stroke="#000000" stroke-width="2.08333" stroke-linejoin="round" stroke-miterlimit="10" fill="none" fill-rule="evenodd"/><path d="M648.675 1983.67 886.979 1983.67" stroke="#000000" stroke-width="2.08333" stroke-linejoin="round" stroke-miterlimit="10" fill="none" fill-rule="evenodd"/><text font-family="Fira Code,Fira Code_MSFontService,sans-serif" font-weight="400" font-size="38" transform="translate(677.889 1798)">1<tspan x="78.7402" y="0">2</tspan><tspan x="157.48" y="0">3</tspan><tspan x="0" y="79">8</tspan><tspan x="157.48" y="79">4</tspan><tspan x="0" y="158">7</tspan><tspan x="78.7402" y="158">6</tspan><tspan x="157.48" y="158">5</tspan></text><path d="M-148.74 1747.29-148.74 1985.6" stroke="#000000" stroke-width="2.08333" stroke-linejoin="round" stroke-miterlimit="10" fill="none" fill-rule="evenodd"/><path d="M-69.9997 1747.29-69.9997 1985.6" stroke="#000000" stroke-width="2.08333" stroke-linejoin="round" stroke-miterlimit="10" fill="none" fill-rule="evenodd"/><path d="M-228.522 1827.07 9.78215 1827.07" stroke="#000000" stroke-width="2.08333" stroke-linejoin="round" stroke-miterlimit="10" fill="none" fill-rule="evenodd"/><path d="M-228.522 1905.81 9.78215 1905.81" stroke="#000000" stroke-width="2.08333" stroke-linejoin="round" stroke-miterlimit="10" fill="none" fill-rule="evenodd"/><path d="M-227.48 1747.29-227.48 1985.6" stroke="#000000" stroke-width="2.08333" stroke-linejoin="round" stroke-miterlimit="10" fill="none" fill-rule="evenodd"/><path d="M8.74049 1747.29 8.74049 1985.6" stroke="#000000" stroke-width="2.08333" stroke-linejoin="round" stroke-miterlimit="10" fill="none" fill-rule="evenodd"/><path d="M-228.522 1748.33 9.78215 1748.33" stroke="#000000" stroke-width="2.08333" stroke-linejoin="round" stroke-miterlimit="10" fill="none" fill-rule="evenodd"/><path d="M-228.522 1984.56 9.78215 1984.56" stroke="#000000" stroke-width="2.08333" stroke-linejoin="round" stroke-miterlimit="10" fill="none" fill-rule="evenodd"/><text font-family="Fira Code,Fira Code_MSFontService,sans-serif" font-weight="400" font-size="38" transform="translate(-199.308 1799)">2<tspan x="78.7402" y="0">3</tspan><tspan x="157.48" y="0">4</tspan><tspan x="0" y="79">1</tspan><tspan x="78.7402" y="79">8</tspan><tspan x="157.48" y="79">5</tspan><tspan x="0" y="158">7</tspan><tspan x="78.7402" y="158">6</tspan></text><path d="M724.409 325.238 724.409 563.542" stroke="#000000" stroke-width="2.08333" stroke-linejoin="round" stroke-miterlimit="10" fill="none" fill-rule="evenodd"/><path d="M803.15 325.238 803.15 563.542" stroke="#000000" stroke-width="2.08333" stroke-linejoin="round" stroke-miterlimit="10" fill="none" fill-rule="evenodd"/><path d="M644.628 405.02 882.931 405.02" stroke="#000000" stroke-width="2.08333" stroke-linejoin="round" stroke-miterlimit="10" fill="none" fill-rule="evenodd"/><path d="M644.628 483.76 882.931 483.76" stroke="#000000" stroke-width="2.08333" stroke-linejoin="round" stroke-miterlimit="10" fill="none" fill-rule="evenodd"/><path d="M645.669 325.238 645.669 563.542" stroke="#000000" stroke-width="2.08333" stroke-linejoin="round" stroke-miterlimit="10" fill="none" fill-rule="evenodd"/><path d="M881.89 325.238 881.89 563.542" stroke="#000000" stroke-width="2.08333" stroke-linejoin="round" stroke-miterlimit="10" fill="none" fill-rule="evenodd"/><path d="M644.628 326.28 882.931 326.28" stroke="#000000" stroke-width="2.08333" stroke-linejoin="round" stroke-miterlimit="10" fill="none" fill-rule="evenodd"/><path d="M644.628 562.5 882.931 562.5" stroke="#000000" stroke-width="2.08333" stroke-linejoin="round" stroke-miterlimit="10" fill="none" fill-rule="evenodd"/><text font-family="Fira Code,Fira Code_MSFontService,sans-serif" font-weight="400" font-size="38" transform="translate(673.841 377)">2<tspan x="78.7402" y="0">8</tspan><tspan x="157.48" y="0">3</tspan><tspan x="0" y="79">1</tspan><tspan x="157.48" y="79">4</tspan><tspan x="0" y="158">7</tspan><tspan x="78.7402" y="158">6</tspan><tspan x="157.48" y="158">5</tspan></text><path d="M251.969 1036.27 251.969 1274.57" stroke="#000000" stroke-width="2.08333" stroke-linejoin="round" stroke-miterlimit="10" fill="none" fill-rule="evenodd"/><path d="M330.709 1036.27 330.709 1274.57" stroke="#000000" stroke-width="2.08333" stroke-linejoin="round" stroke-miterlimit="10" fill="none" fill-rule="evenodd"/><path d="M172.187 1116.05 410.49 1116.05" stroke="#000000" stroke-width="2.08333" stroke-linejoin="round" stroke-miterlimit="10" fill="none" fill-rule="evenodd"/><path d="M172.187 1194.79 410.49 1194.79" stroke="#000000" stroke-width="2.08333" stroke-linejoin="round" stroke-miterlimit="10" fill="none" fill-rule="evenodd"/><path d="M173.228 1036.27 173.228 1274.57" stroke="#000000" stroke-width="2.08333" stroke-linejoin="round" stroke-miterlimit="10" fill="none" fill-rule="evenodd"/><path d="M409.449 1036.27 409.449 1274.57" stroke="#000000" stroke-width="2.08333" stroke-linejoin="round" stroke-miterlimit="10" fill="none" fill-rule="evenodd"/><path d="M172.187 1037.31 410.49 1037.31" stroke="#000000" stroke-width="2.08333" stroke-linejoin="round" stroke-miterlimit="10" fill="none" fill-rule="evenodd"/><path d="M172.187 1273.53 410.49 1273.53" stroke="#000000" stroke-width="2.08333" stroke-linejoin="round" stroke-miterlimit="10" fill="none" fill-rule="evenodd"/><text font-family="Fira Code,Fira Code_MSFontService,sans-serif" font-weight="400" font-size="38" transform="translate(201.401 1088)">2<tspan x="78.7401" y="0">3</tspan><tspan x="0" y="79">1</tspan><tspan x="78.7401" y="79">8</tspan><tspan x="157.48" y="79">4</tspan><tspan x="0" y="158">7</tspan><tspan x="78.7401" y="158">6</tspan><tspan x="157.48" y="158">5</tspan></text><path d="M728.457 1393.33 728.457 1631.63" stroke="#000000" stroke-width="2.08333" stroke-linejoin="round" stroke-miterlimit="10" fill="none" fill-rule="evenodd"/><path d="M807.197 1393.33 807.197 1631.63" stroke="#000000" stroke-width="2.08333" stroke-linejoin="round" stroke-miterlimit="10" fill="none" fill-rule="evenodd"/><path d="M648.675 1473.11 886.979 1473.11" stroke="#000000" stroke-width="2.08333" stroke-linejoin="round" stroke-miterlimit="10" fill="none" fill-rule="evenodd"/><path d="M648.675 1551.85 886.979 1551.85" stroke="#000000" stroke-width="2.08333" stroke-linejoin="round" stroke-miterlimit="10" fill="none" fill-rule="evenodd"/><path d="M649.717 1393.33 649.717 1631.63" stroke="#000000" stroke-width="2.08333" stroke-linejoin="round" stroke-miterlimit="10" fill="none" fill-rule="evenodd"/><path d="M885.938 1393.33 885.938 1631.63" stroke="#000000" stroke-width="2.08333" stroke-linejoin="round" stroke-miterlimit="10" fill="none" fill-rule="evenodd"/><path d="M648.675 1394.37 886.979 1394.37" stroke="#000000" stroke-width="2.08333" stroke-linejoin="round" stroke-miterlimit="10" fill="none" fill-rule="evenodd"/><path d="M648.675 1630.59 886.979 1630.59" stroke="#000000" stroke-width="2.08333" stroke-linejoin="round" stroke-miterlimit="10" fill="none" fill-rule="evenodd"/><text font-family="Fira Code,Fira Code_MSFontService,sans-serif" font-weight="400" font-size="38" transform="translate(677.889 1445)">1<tspan x="78.7402" y="0">2</tspan><tspan x="157.48" y="0">3</tspan><tspan x="78.7402" y="79">8</tspan><tspan x="157.48" y="79">4</tspan><tspan x="0" y="158">7</tspan><tspan x="78.7402" y="158">6</tspan><tspan x="157.48" y="158">5</tspan></text><path d="M133.858 1747.29 133.858 1985.6" stroke="#000000" stroke-width="2.08333" stroke-linejoin="round" stroke-miterlimit="10" fill="none" fill-rule="evenodd"/><path d="M212.598 1747.29 212.598 1985.6" stroke="#000000" stroke-width="2.08333" stroke-linejoin="round" stroke-miterlimit="10" fill="none" fill-rule="evenodd"/><path d="M54.0764 1827.07 292.38 1827.07" stroke="#000000" stroke-width="2.08333" stroke-linejoin="round" stroke-miterlimit="10" fill="none" fill-rule="evenodd"/><path d="M54.0764 1905.81 292.38 1905.81" stroke="#000000" stroke-width="2.08333" stroke-linejoin="round" stroke-miterlimit="10" fill="none" fill-rule="evenodd"/><path d="M55.1181 1747.29 55.1181 1985.6" stroke="#000000" stroke-width="2.08333" stroke-linejoin="round" stroke-miterlimit="10" fill="none" fill-rule="evenodd"/><path d="M291.339 1747.29 291.339 1985.6" stroke="#000000" stroke-width="2.08333" stroke-linejoin="round" stroke-miterlimit="10" fill="none" fill-rule="evenodd"/><path d="M54.0764 1748.33 292.38 1748.33" stroke="#000000" stroke-width="2.08333" stroke-linejoin="round" stroke-miterlimit="10" fill="none" fill-rule="evenodd"/><path d="M54.0764 1984.56 292.38 1984.56" stroke="#000000" stroke-width="2.08333" stroke-linejoin="round" stroke-miterlimit="10" fill="none" fill-rule="evenodd"/><text font-family="Fira Code,Fira Code_MSFontService,sans-serif" font-weight="400" font-size="38" transform="translate(83.2903 1799)">2<tspan x="78.7402" y="0">3</tspan><tspan x="157.48" y="0">4</tspan><tspan x="0" y="79">1</tspan><tspan x="157.48" y="79">8</tspan><tspan x="0" y="158">7</tspan><tspan x="78.7402" y="158">6</tspan><tspan x="157.48" y="158">5</tspan></text><path d="M728.457 1036.27 728.457 1274.57" stroke="#000000" stroke-width="2.08333" stroke-linejoin="round" stroke-miterlimit="10" fill="none" fill-rule="evenodd"/><path d="M807.197 1036.27 807.197 1274.57" stroke="#000000" stroke-width="2.08333" stroke-linejoin="round" stroke-miterlimit="10" fill="none" fill-rule="evenodd"/><path d="M648.675 1116.05 886.979 1116.05" stroke="#000000" stroke-width="2.08333" stroke-linejoin="round" stroke-miterlimit="10" fill="none" fill-rule="evenodd"/><path d="M648.675 1194.79 886.979 1194.79" stroke="#000000" stroke-width="2.08333" stroke-linejoin="round" stroke-miterlimit="10" fill="none" fill-rule="evenodd"/><path d="M649.717 1036.27 649.717 1274.57" stroke="#000000" stroke-width="2.08333" stroke-linejoin="round" stroke-miterlimit="10" fill="none" fill-rule="evenodd"/><path d="M885.938 1036.27 885.938 1274.57" stroke="#000000" stroke-width="2.08333" stroke-linejoin="round" stroke-miterlimit="10" fill="none" fill-rule="evenodd"/><path d="M648.675 1037.31 886.979 1037.31" stroke="#000000" stroke-width="2.08333" stroke-linejoin="round" stroke-miterlimit="10" fill="none" fill-rule="evenodd"/><path d="M648.675 1273.53 886.979 1273.53" stroke="#000000" stroke-width="2.08333" stroke-linejoin="round" stroke-miterlimit="10" fill="none" fill-rule="evenodd"/><text font-family="Fira Code,Fira Code_MSFontService,sans-serif" font-weight="400" font-size="38" transform="translate(756.629 1088)">2<tspan x="78.7402" y="0">3</tspan><tspan x="-78.7402" y="79">1</tspan><tspan x="0" y="79">8</tspan><tspan x="78.7402" y="79">4</tspan><tspan x="-78.7402" y="158">7</tspan><tspan x="0" y="158">6</tspan><tspan x="78.7402" y="158">5</tspan></text><path d="M488.189 680.752 488.189 919.055" stroke="#000000" stroke-width="2.08333" stroke-linejoin="round" stroke-miterlimit="10" fill="none" fill-rule="evenodd"/><path d="M566.929 680.752 566.929 919.055" stroke="#000000" stroke-width="2.08333" stroke-linejoin="round" stroke-miterlimit="10" fill="none" fill-rule="evenodd"/><path d="M408.407 760.534 646.711 760.534" stroke="#000000" stroke-width="2.08333" stroke-linejoin="round" stroke-miterlimit="10" fill="none" fill-rule="evenodd"/><path d="M408.407 839.274 646.711 839.274" stroke="#000000" stroke-width="2.08333" stroke-linejoin="round" stroke-miterlimit="10" fill="none" fill-rule="evenodd"/><path d="M409.449 680.752 409.449 919.055" stroke="#000000" stroke-width="2.08333" stroke-linejoin="round" stroke-miterlimit="10" fill="none" fill-rule="evenodd"/><path d="M645.669 680.752 645.669 919.055" stroke="#000000" stroke-width="2.08333" stroke-linejoin="round" stroke-miterlimit="10" fill="none" fill-rule="evenodd"/><path d="M408.407 681.793 646.711 681.793" stroke="#000000" stroke-width="2.08333" stroke-linejoin="round" stroke-miterlimit="10" fill="none" fill-rule="evenodd"/><path d="M408.407 918.014 646.711 918.014" stroke="#000000" stroke-width="2.08333" stroke-linejoin="round" stroke-miterlimit="10" fill="none" fill-rule="evenodd"/><text font-family="Fira Code,Fira Code_MSFontService,sans-serif" font-weight="400" font-size="38" transform="translate(437.621 733)">2<tspan x="157.48" y="0">3</tspan><tspan x="0" y="78">1</tspan><tspan x="78.7402" y="78">8</tspan><tspan x="157.48" y="78">4</tspan><tspan x="0" y="157">7</tspan><tspan x="78.7402" y="157">6</tspan><tspan x="157.48" y="157">5</tspan></text><path d="M7.33727 1391.78 7.33727 1630.08" stroke="#000000" stroke-width="2.08333" stroke-linejoin="round" stroke-miterlimit="10" fill="none" fill-rule="evenodd"/><path d="M86.0774 1391.78 86.0774 1630.08" stroke="#000000" stroke-width="2.08333" stroke-linejoin="round" stroke-miterlimit="10" fill="none" fill-rule="evenodd"/><path d="M-72.4445 1471.56 165.859 1471.56" stroke="#000000" stroke-width="2.08333" stroke-linejoin="round" stroke-miterlimit="10" fill="none" fill-rule="evenodd"/><path d="M-72.4445 1550.3 165.859 1550.3" stroke="#000000" stroke-width="2.08333" stroke-linejoin="round" stroke-miterlimit="10" fill="none" fill-rule="evenodd"/><path d="M-71.4029 1391.78-71.4029 1630.08" stroke="#000000" stroke-width="2.08333" stroke-linejoin="round" stroke-miterlimit="10" fill="none" fill-rule="evenodd"/><path d="M164.818 1391.78 164.818 1630.08" stroke="#000000" stroke-width="2.08333" stroke-linejoin="round" stroke-miterlimit="10" fill="none" fill-rule="evenodd"/><path d="M-72.4445 1392.82 165.859 1392.82" stroke="#000000" stroke-width="2.08333" stroke-linejoin="round" stroke-miterlimit="10" fill="none" fill-rule="evenodd"/><path d="M-72.4445 1629.04 165.859 1629.04" stroke="#000000" stroke-width="2.08333" stroke-linejoin="round" stroke-miterlimit="10" fill="none" fill-rule="evenodd"/><text font-family="Fira Code,Fira Code_MSFontService,sans-serif" font-weight="400" font-size="38" transform="translate(-43.2307 1444)">2<tspan x="78.7402" y="0">3</tspan><tspan x="157.48" y="0">4</tspan><tspan x="0" y="78">1</tspan><tspan x="78.7402" y="78">8</tspan><tspan x="0" y="157">7</tspan><tspan x="78.7402" y="157">6</tspan><tspan x="157.48" y="157">5</tspan></text><path d="M0.174623-0.468515 226.634 83.9368 226.285 84.8738-0.174623 0.468515ZM226.69 77.8213 236.22 88.0433 222.325 89.5342Z" fill="#4472C4" transform="matrix(-1 -8.74228e-08 -8.74228e-08 1 1000.72 238.5)"/><path d="M0.225393-0.446316 227.147 114.151 226.696 115.044-0.225393 0.446316ZM227.88 108.08 236.22 119.293 222.245 119.237Z" fill="#4472C4" transform="matrix(-1 -8.74228e-08 -8.74228e-08 1 764.72 563.5)"/><path d="M0.225393-0.446316 227.147 114.151 226.696 115.044-0.225393 0.446316ZM227.88 108.08 236.22 119.293 222.245 119.237Z" fill="#4472C4" transform="matrix(-1 -8.74228e-08 -8.74228e-08 1 527.72 918.5)"/><path d="M0.219154-0.449412 235.487 114.278 235.049 115.177-0.219154 0.449412ZM236.135 108.197 244.631 119.293 230.656 119.432Z" fill="#4472C4" transform="matrix(-1 -8.74228e-08 -8.74228e-08 1 292.131 1274.5)"/><path d="M0.303629-0.397252 148.105 112.571 147.498 113.365-0.303629 0.397252ZM149.941 106.737 156.077 119.293 142.35 116.668Z" fill="#4472C4" transform="matrix(-1 -8.74228e-08 -8.74228e-08 1 47.5771 1629.5)"/><path d="M47.843 1629.14 166.785 1741.28 166.099 1742.01 47.157 1629.86ZM169.214 1735.67 174.021 1748.79 160.639 1744.77Z" fill="#4472C4"/><path d="M528.722 918.052 759.661 1032.71 759.216 1033.61 528.278 918.948ZM760.352 1026.64 768.768 1037.79 754.793 1037.83Z" fill="#4472C4"/><path d="M769 1274.5 769 1384.93 768 1384.93 768 1274.5ZM774.75 1382.84 768.5 1395.34 762.25 1382.84Z" fill="#4472C4"/><path d="M769 1631.5 769 1737.94 768 1737.94 768 1631.5ZM774.75 1735.86 768.5 1748.36 762.25 1735.86Z" fill="#4472C4"/><text font-family="Fira Code,Fira Code_MSFontService,sans-serif" font-weight="400" font-size="38" transform="translate(1133.11 42)">1<tspan x="-236.22" y="325">2</tspan><tspan x="-473.456" y="680">3</tspan><tspan x="-708.768" y="1037">4</tspan><tspan x="-953.293" y="1392">5</tspan><tspan x="-1398.5" y="1749">6</tspan><tspan x="-826.772" y="1749">7</tspan><tspan x="-232.173" y="1037">8</tspan><tspan x="-232.173" y="1394">9</tspan><tspan x="-236.22" y="1749">10</tspan></text></g></svg>