<svg width="1311" height="1879" xmlns="http://www.w3.org/2000/svg" xmlns:xlink="http://www.w3.org/1999/xlink" overflow="hidden"><defs><clipPath id="clip0"><path d="M167-5 1478-5 1478 1874 167 1874Z" fill-rule="evenodd" clip-rule="evenodd"/></clipPath></defs><g clip-path="url(#clip0)" transform="translate(-167 5)"><path d="M960.63-1.04167 960.63 237.262" stroke="#000000" stroke-width="2.08333" stroke-linejoin="round" stroke-miterlimit="10" fill="none" fill-rule="evenodd"/><path d="M1039.37-1.04167 1039.37 237.262" stroke="#000000" stroke-width="2.08333" stroke-linejoin="round" stroke-miterlimit="10" fill="none" fill-rule="evenodd"/><path d="M880.848 78.7402 1119.15 78.7402" stroke="#000000" stroke-width="2.08333" stroke-linejoin="round" stroke-miterlimit="10" fill="none" fill-rule="evenodd"/><path d="M880.848 157.48 1119.15 157.48" stroke="#000000" stroke-width="2.08333" stroke-linejoin="round" stroke-miterlimit="10" fill="none" fill-rule="evenodd"/><path d="M881.89-1.04167 881.89 237.262" stroke="#000000" stroke-width="2.08333" stroke-linejoin="round" stroke-miterlimit="10" fill="none" fill-rule="evenodd"/><path d="M1118.11-1.04167 1118.11 237.262" stroke="#000000" stroke-width="2.08333" stroke-linejoin="round" stroke-miterlimit="10" fill="none" fill-rule="evenodd"/><path d="M880.848 0 1119.15 0" stroke="#000000" stroke-width="2.08333" stroke-linejoin="round" stroke-miterlimit="10" fill="none" fill-rule="evenodd"/><path d="M880.848 236.22 1119.15 236.22" stroke="#000000" stroke-width="2.08333" stroke-linejoin="round" stroke-miterlimit="10" fill="none" fill-rule="evenodd"/><text font-family="Fira Code,Fira Code_MSFontService,sans-serif" font-weight="400" font-size="38" transform="translate(910.062 51)">2<tspan x="78.7401" y="0">8</tspan><tspan x="157.48" y="0">3</tspan><tspan x="0" y="79">1</tspan><tspan x="78.7401" y="79">6</tspan><tspan x="157.48" y="79">4</tspan><tspan x="0" y="157">7</tspan><tspan x="157.48" y="157">5</tspan></text><path d="M604.124 325.238 604.124 563.542" stroke="#000000" stroke-width="2.08333" stroke-linejoin="round" stroke-miterlimit="10" fill="none" fill-rule="evenodd"/><path d="M682.864 325.238 682.864 563.542" stroke="#000000" stroke-width="2.08333" stroke-linejoin="round" stroke-miterlimit="10" fill="none" fill-rule="evenodd"/><path d="M524.342 405.02 762.646 405.02" stroke="#000000" stroke-width="2.08333" stroke-linejoin="round" stroke-miterlimit="10" fill="none" fill-rule="evenodd"/><path d="M524.342 483.76 762.646 483.76" stroke="#000000" stroke-width="2.08333" stroke-linejoin="round" stroke-miterlimit="10" fill="none" fill-rule="evenodd"/><path d="M525.384 325.238 525.384 563.542" stroke="#000000" stroke-width="2.08333" stroke-linejoin="round" stroke-miterlimit="10" fill="none" fill-rule="evenodd"/><path d="M761.604 325.238 761.604 563.542" stroke="#000000" stroke-width="2.08333" stroke-linejoin="round" stroke-miterlimit="10" fill="none" fill-rule="evenodd"/><path d="M524.342 326.28 762.646 326.28" stroke="#000000" stroke-width="2.08333" stroke-linejoin="round" stroke-miterlimit="10" fill="none" fill-rule="evenodd"/><path d="M524.342 562.5 762.646 562.5" stroke="#000000" stroke-width="2.08333" stroke-linejoin="round" stroke-miterlimit="10" fill="none" fill-rule="evenodd"/><text font-family="Fira Code,Fira Code_MSFontService,sans-serif" font-weight="400" font-size="38" transform="translate(553.556 377)">2<tspan x="78.7402" y="0">8</tspan><tspan x="157.48" y="0">3</tspan><tspan x="0" y="79">1</tspan><tspan x="157.48" y="79">4</tspan><tspan x="0" y="158">7</tspan><tspan x="78.7402" y="158">6</tspan><tspan x="157.48" y="158">5</tspan></text><path d="M960.63 325.238 960.63 563.542" stroke="#000000" stroke-width="2.08333" stroke-linejoin="round" stroke-miterlimit="10" fill="none" fill-rule="evenodd"/><path d="M1039.37 325.238 1039.37 563.542" stroke="#000000" stroke-width="2.08333" stroke-linejoin="round" stroke-miterlimit="10" fill="none" fill-rule="evenodd"/><path d="M880.848 405.02 1119.15 405.02" stroke="#000000" stroke-width="2.08333" stroke-linejoin="round" stroke-miterlimit="10" fill="none" fill-rule="evenodd"/><path d="M880.848 483.76 1119.15 483.76" stroke="#000000" stroke-width="2.08333" stroke-linejoin="round" stroke-miterlimit="10" fill="none" fill-rule="evenodd"/><path d="M881.89 325.238 881.89 563.542" stroke="#000000" stroke-width="2.08333" stroke-linejoin="round" stroke-miterlimit="10" fill="none" fill-rule="evenodd"/><path d="M1118.11 325.238 1118.11 563.542" stroke="#000000" stroke-width="2.08333" stroke-linejoin="round" stroke-miterlimit="10" fill="none" fill-rule="evenodd"/><path d="M880.848 326.279 1119.15 326.279" stroke="#000000" stroke-width="2.08333" stroke-linejoin="round" stroke-miterlimit="10" fill="none" fill-rule="evenodd"/><path d="M880.848 562.5 1119.15 562.5" stroke="#000000" stroke-width="2.08333" stroke-linejoin="round" stroke-miterlimit="10" fill="none" fill-rule="evenodd"/><text font-family="Fira Code,Fira Code_MSFontService,sans-serif" font-weight="400" font-size="38" transform="translate(910.062 377)">2<tspan x="78.7401" y="0">8</tspan><tspan x="157.48" y="0">3</tspan><tspan x="0" y="79">1</tspan><tspan x="78.7401" y="79">6</tspan><tspan x="157.48" y="79">4</tspan><tspan x="0" y="158">7</tspan><tspan x="78.7401" y="158">5</tspan></text><path d="M1317.14 325.238 1317.14 563.542" stroke="#000000" stroke-width="2.08333" stroke-linejoin="round" stroke-miterlimit="10" fill="none" fill-rule="evenodd"/><path d="M1395.88 325.238 1395.88 563.542" stroke="#000000" stroke-width="2.08333" stroke-linejoin="round" stroke-miterlimit="10" fill="none" fill-rule="evenodd"/><path d="M1237.35 405.02 1475.66 405.02" stroke="#000000" stroke-width="2.08333" stroke-linejoin="round" stroke-miterlimit="10" fill="none" fill-rule="evenodd"/><path d="M1237.35 483.76 1475.66 483.76" stroke="#000000" stroke-width="2.08333" stroke-linejoin="round" stroke-miterlimit="10" fill="none" fill-rule="evenodd"/><path d="M1238.4 325.238 1238.4 563.542" stroke="#000000" stroke-width="2.08333" stroke-linejoin="round" stroke-miterlimit="10" fill="none" fill-rule="evenodd"/><path d="M1474.62 325.238 1474.62 563.542" stroke="#000000" stroke-width="2.08333" stroke-linejoin="round" stroke-miterlimit="10" fill="none" fill-rule="evenodd"/><path d="M1237.35 326.279 1475.66 326.279" stroke="#000000" stroke-width="2.08333" stroke-linejoin="round" stroke-miterlimit="10" fill="none" fill-rule="evenodd"/><path d="M1237.35 562.5 1475.66 562.5" stroke="#000000" stroke-width="2.08333" stroke-linejoin="round" stroke-miterlimit="10" fill="none" fill-rule="evenodd"/><text font-family="Fira Code,Fira Code_MSFontService,sans-serif" font-weight="400" font-size="38" transform="translate(1266.57 377)">2<tspan x="78.7401" y="0">8</tspan><tspan x="157.48" y="0">3</tspan><tspan x="0" y="79">1</tspan><tspan x="78.7401" y="79">6</tspan><tspan x="157.48" y="79">4</tspan><tspan x="78.7401" y="158">7</tspan><tspan x="157.48" y="158">5</tspan></text><path d="M0.122461-0.484771 346.529 87.0231 346.285 87.9926-0.122461 0.484771ZM345.918 80.9379 356.506 90.0591 342.856 93.0572Z" fill="#4472C4" transform="matrix(-1 -8.74228e-08 -8.74228e-08 1 1000.01 236.5)"/><path d="M1001 236.5 1001 316.142 1000 316.142 1000 236.5ZM1006.75 314.059 1000.5 326.559 994.25 314.059Z" fill="#4472C4"/><path d="M1000.62 236.015 1347.03 323.523 1346.79 324.493 1000.38 236.985ZM1346.42 317.438 1357.01 326.559 1343.36 329.557Z" fill="#4472C4"/><text font-family="Fira Code,Fira Code_MSFontService,sans-serif" font-weight="400" font-size="38" transform="translate(1133.11 42)">1<tspan x="-352.701" y="326">2</tspan></text><path d="M247.618 651.517 247.618 889.821" stroke="#000000" stroke-width="2.08333" stroke-linejoin="round" stroke-miterlimit="10" fill="none" fill-rule="evenodd"/><path d="M326.358 651.517 326.358 889.821" stroke="#000000" stroke-width="2.08333" stroke-linejoin="round" stroke-miterlimit="10" fill="none" fill-rule="evenodd"/><path d="M167.836 731.299 406.14 731.299" stroke="#000000" stroke-width="2.08333" stroke-linejoin="round" stroke-miterlimit="10" fill="none" fill-rule="evenodd"/><path d="M167.836 810.039 406.14 810.039" stroke="#000000" stroke-width="2.08333" stroke-linejoin="round" stroke-miterlimit="10" fill="none" fill-rule="evenodd"/><path d="M168.878 651.517 168.878 889.821" stroke="#000000" stroke-width="2.08333" stroke-linejoin="round" stroke-miterlimit="10" fill="none" fill-rule="evenodd"/><path d="M405.098 651.517 405.098 889.821" stroke="#000000" stroke-width="2.08333" stroke-linejoin="round" stroke-miterlimit="10" fill="none" fill-rule="evenodd"/><path d="M167.836 652.559 406.14 652.559" stroke="#000000" stroke-width="2.08333" stroke-linejoin="round" stroke-miterlimit="10" fill="none" fill-rule="evenodd"/><path d="M167.836 888.779 406.14 888.779" stroke="#000000" stroke-width="2.08333" stroke-linejoin="round" stroke-miterlimit="10" fill="none" fill-rule="evenodd"/><text font-family="Fira Code,Fira Code_MSFontService,sans-serif" font-weight="400" font-size="38" transform="translate(197.05 703)">2<tspan x="157.48" y="0">3</tspan><tspan x="0" y="79">1</tspan><tspan x="78.7402" y="79">8</tspan><tspan x="157.48" y="79">4</tspan><tspan x="0" y="158">7</tspan><tspan x="78.7402" y="158">6</tspan><tspan x="157.48" y="158">5</tspan></text><path d="M604.124 651.517 604.124 889.821" stroke="#000000" stroke-width="2.08333" stroke-linejoin="round" stroke-miterlimit="10" fill="none" fill-rule="evenodd"/><path d="M682.864 651.517 682.864 889.821" stroke="#000000" stroke-width="2.08333" stroke-linejoin="round" stroke-miterlimit="10" fill="none" fill-rule="evenodd"/><path d="M524.342 731.299 762.646 731.299" stroke="#000000" stroke-width="2.08333" stroke-linejoin="round" stroke-miterlimit="10" fill="none" fill-rule="evenodd"/><path d="M524.342 810.039 762.646 810.039" stroke="#000000" stroke-width="2.08333" stroke-linejoin="round" stroke-miterlimit="10" fill="none" fill-rule="evenodd"/><path d="M525.384 651.517 525.384 889.821" stroke="#000000" stroke-width="2.08333" stroke-linejoin="round" stroke-miterlimit="10" fill="none" fill-rule="evenodd"/><path d="M761.604 651.517 761.604 889.821" stroke="#000000" stroke-width="2.08333" stroke-linejoin="round" stroke-miterlimit="10" fill="none" fill-rule="evenodd"/><path d="M524.342 652.559 762.646 652.559" stroke="#000000" stroke-width="2.08333" stroke-linejoin="round" stroke-miterlimit="10" fill="none" fill-rule="evenodd"/><path d="M524.342 888.779 762.646 888.779" stroke="#000000" stroke-width="2.08333" stroke-linejoin="round" stroke-miterlimit="10" fill="none" fill-rule="evenodd"/><text font-family="Fira Code,Fira Code_MSFontService,sans-serif" font-weight="400" font-size="38" transform="translate(553.556 703)">2<tspan x="78.7402" y="0">8</tspan><tspan x="157.48" y="0">3</tspan><tspan x="78.7402" y="79">1</tspan><tspan x="157.48" y="79">4</tspan><tspan x="0" y="158">7</tspan><tspan x="78.7402" y="158">6</tspan><tspan x="157.48" y="158">5</tspan></text><path d="M960.63 651.517 960.63 889.821" stroke="#000000" stroke-width="2.08333" stroke-linejoin="round" stroke-miterlimit="10" fill="none" fill-rule="evenodd"/><path d="M1039.37 651.517 1039.37 889.821" stroke="#000000" stroke-width="2.08333" stroke-linejoin="round" stroke-miterlimit="10" fill="none" fill-rule="evenodd"/><path d="M880.848 731.299 1119.15 731.299" stroke="#000000" stroke-width="2.08333" stroke-linejoin="round" stroke-miterlimit="10" fill="none" fill-rule="evenodd"/><path d="M880.848 810.039 1119.15 810.039" stroke="#000000" stroke-width="2.08333" stroke-linejoin="round" stroke-miterlimit="10" fill="none" fill-rule="evenodd"/><path d="M881.89 651.517 881.89 889.821" stroke="#000000" stroke-width="2.08333" stroke-linejoin="round" stroke-miterlimit="10" fill="none" fill-rule="evenodd"/><path d="M1118.11 651.517 1118.11 889.821" stroke="#000000" stroke-width="2.08333" stroke-linejoin="round" stroke-miterlimit="10" fill="none" fill-rule="evenodd"/><path d="M880.848 652.559 1119.15 652.559" stroke="#000000" stroke-width="2.08333" stroke-linejoin="round" stroke-miterlimit="10" fill="none" fill-rule="evenodd"/><path d="M880.848 888.779 1119.15 888.779" stroke="#000000" stroke-width="2.08333" stroke-linejoin="round" stroke-miterlimit="10" fill="none" fill-rule="evenodd"/><text font-family="Fira Code,Fira Code_MSFontService,sans-serif" font-weight="400" font-size="38" transform="translate(910.062 703)">2<tspan x="78.7401" y="0">8</tspan><tspan x="157.48" y="0">3</tspan><tspan x="0" y="79">1</tspan><tspan x="78.7401" y="79">4</tspan><tspan x="0" y="158">7</tspan><tspan x="78.7401" y="158">6</tspan><tspan x="157.48" y="158">5</tspan></text><path d="M0.122461-0.484771 346.53 87.0231 346.285 87.9926-0.122461 0.484771ZM345.918 80.9377 356.506 90.0589 342.856 93.057Z" fill="#4472C4" transform="matrix(-1 -8.74228e-08 -8.74228e-08 1 644.006 563.5)"/><path d="M644 563.5 644 643.142 643 643.142 643 563.5ZM649.75 641.059 643.5 653.559 637.25 641.059Z" fill="#4472C4"/><path d="M643.622 563.015 990.03 650.523 989.785 651.492 643.378 563.985ZM989.418 644.438 1000.01 653.559 986.356 656.557Z" fill="#4472C4"/><text font-family="Fira Code,Fira Code_MSFontService,sans-serif" font-weight="400" font-size="38" transform="translate(423.903 694)">3</text><path d="M247.618 977.797 247.618 1216.1" stroke="#000000" stroke-width="2.08333" stroke-linejoin="round" stroke-miterlimit="10" fill="none" fill-rule="evenodd"/><path d="M326.358 977.797 326.358 1216.1" stroke="#000000" stroke-width="2.08333" stroke-linejoin="round" stroke-miterlimit="10" fill="none" fill-rule="evenodd"/><path d="M167.836 1057.58 406.14 1057.58" stroke="#000000" stroke-width="2.08333" stroke-linejoin="round" stroke-miterlimit="10" fill="none" fill-rule="evenodd"/><path d="M167.836 1136.32 406.14 1136.32" stroke="#000000" stroke-width="2.08333" stroke-linejoin="round" stroke-miterlimit="10" fill="none" fill-rule="evenodd"/><path d="M168.878 977.797 168.878 1216.1" stroke="#000000" stroke-width="2.08333" stroke-linejoin="round" stroke-miterlimit="10" fill="none" fill-rule="evenodd"/><path d="M405.098 977.797 405.098 1216.1" stroke="#000000" stroke-width="2.08333" stroke-linejoin="round" stroke-miterlimit="10" fill="none" fill-rule="evenodd"/><path d="M167.836 978.838 406.14 978.838" stroke="#000000" stroke-width="2.08333" stroke-linejoin="round" stroke-miterlimit="10" fill="none" fill-rule="evenodd"/><path d="M167.836 1215.06 406.14 1215.06" stroke="#000000" stroke-width="2.08333" stroke-linejoin="round" stroke-miterlimit="10" fill="none" fill-rule="evenodd"/><text font-family="Fira Code,Fira Code_MSFontService,sans-serif" font-weight="400" font-size="38" transform="translate(275.79 1030)">2<tspan x="78.7401" y="0">3</tspan><tspan x="-78.7402" y="78">1</tspan><tspan x="0" y="78">8</tspan><tspan x="78.7401" y="78">4</tspan><tspan x="-78.7402" y="157">7</tspan><tspan x="0" y="157">6</tspan><tspan x="78.7401" y="157">5</tspan></text><path d="M607.929 977.796 607.929 1216.1" stroke="#000000" stroke-width="2.08333" stroke-linejoin="round" stroke-miterlimit="10" fill="none" fill-rule="evenodd"/><path d="M686.669 977.796 686.669 1216.1" stroke="#000000" stroke-width="2.08333" stroke-linejoin="round" stroke-miterlimit="10" fill="none" fill-rule="evenodd"/><path d="M528.147 1057.58 766.451 1057.58" stroke="#000000" stroke-width="2.08333" stroke-linejoin="round" stroke-miterlimit="10" fill="none" fill-rule="evenodd"/><path d="M528.147 1136.32 766.451 1136.32" stroke="#000000" stroke-width="2.08333" stroke-linejoin="round" stroke-miterlimit="10" fill="none" fill-rule="evenodd"/><path d="M529.188 977.796 529.188 1216.1" stroke="#000000" stroke-width="2.08333" stroke-linejoin="round" stroke-miterlimit="10" fill="none" fill-rule="evenodd"/><path d="M765.409 977.796 765.409 1216.1" stroke="#000000" stroke-width="2.08333" stroke-linejoin="round" stroke-miterlimit="10" fill="none" fill-rule="evenodd"/><path d="M528.147 978.838 766.451 978.838" stroke="#000000" stroke-width="2.08333" stroke-linejoin="round" stroke-miterlimit="10" fill="none" fill-rule="evenodd"/><path d="M528.147 1215.06 766.451 1215.06" stroke="#000000" stroke-width="2.08333" stroke-linejoin="round" stroke-miterlimit="10" fill="none" fill-rule="evenodd"/><text font-family="Fira Code,Fira Code_MSFontService,sans-serif" font-weight="400" font-size="38" transform="translate(557.361 1030)">2<tspan x="78.7402" y="0">3</tspan><tspan x="0" y="78">1</tspan><tspan x="78.7402" y="78">8</tspan><tspan x="157.48" y="78">4</tspan><tspan x="0" y="157">7</tspan><tspan x="78.7402" y="157">6</tspan><tspan x="157.48" y="157">5</tspan></text><path d="M288 889.5 288 969.142 287 969.142 287 889.5ZM293.75 967.059 287.5 979.559 281.25 967.059Z" fill="#4472C4"/><path d="M287.621 889.015 637.826 976.548 637.584 977.518 287.379 889.985ZM637.199 970.464 647.811 979.559 634.168 982.591Z" fill="#4472C4"/><path d="M247.618 1304.08 247.618 1542.38" stroke="#000000" stroke-width="2.08333" stroke-linejoin="round" stroke-miterlimit="10" fill="none" fill-rule="evenodd"/><path d="M326.358 1304.08 326.358 1542.38" stroke="#000000" stroke-width="2.08333" stroke-linejoin="round" stroke-miterlimit="10" fill="none" fill-rule="evenodd"/><path d="M167.836 1383.86 406.14 1383.86" stroke="#000000" stroke-width="2.08333" stroke-linejoin="round" stroke-miterlimit="10" fill="none" fill-rule="evenodd"/><path d="M167.836 1462.6 406.14 1462.6" stroke="#000000" stroke-width="2.08333" stroke-linejoin="round" stroke-miterlimit="10" fill="none" fill-rule="evenodd"/><path d="M168.878 1304.08 168.878 1542.38" stroke="#000000" stroke-width="2.08333" stroke-linejoin="round" stroke-miterlimit="10" fill="none" fill-rule="evenodd"/><path d="M405.098 1304.08 405.098 1542.38" stroke="#000000" stroke-width="2.08333" stroke-linejoin="round" stroke-miterlimit="10" fill="none" fill-rule="evenodd"/><path d="M167.836 1305.12 406.14 1305.12" stroke="#000000" stroke-width="2.08333" stroke-linejoin="round" stroke-miterlimit="10" fill="none" fill-rule="evenodd"/><path d="M167.836 1541.34 406.14 1541.34" stroke="#000000" stroke-width="2.08333" stroke-linejoin="round" stroke-miterlimit="10" fill="none" fill-rule="evenodd"/><text font-family="Fira Code,Fira Code_MSFontService,sans-serif" font-weight="400" font-size="38" transform="translate(197.05 1356)">1<tspan x="78.7402" y="0">2</tspan><tspan x="157.48" y="0">3</tspan><tspan x="78.7402" y="79">8</tspan><tspan x="157.48" y="79">4</tspan><tspan x="0" y="157">7</tspan><tspan x="78.7402" y="157">6</tspan><tspan x="157.48" y="157">5</tspan></text><path d="M288 1215.5 288 1295.14 287 1295.14 287 1215.5ZM293.75 1293.06 287.5 1305.56 281.25 1293.06Z" fill="#4472C4"/><path d="M247.618 1630.36 247.618 1868.66" stroke="#000000" stroke-width="2.08333" stroke-linejoin="round" stroke-miterlimit="10" fill="none" fill-rule="evenodd"/><path d="M326.358 1630.36 326.358 1868.66" stroke="#000000" stroke-width="2.08333" stroke-linejoin="round" stroke-miterlimit="10" fill="none" fill-rule="evenodd"/><path d="M167.836 1710.14 406.14 1710.14" stroke="#000000" stroke-width="2.08333" stroke-linejoin="round" stroke-miterlimit="10" fill="none" fill-rule="evenodd"/><path d="M167.836 1788.88 406.14 1788.88" stroke="#000000" stroke-width="2.08333" stroke-linejoin="round" stroke-miterlimit="10" fill="none" fill-rule="evenodd"/><path d="M168.878 1630.36 168.878 1868.66" stroke="#000000" stroke-width="2.08333" stroke-linejoin="round" stroke-miterlimit="10" fill="none" fill-rule="evenodd"/><path d="M405.098 1630.36 405.098 1868.66" stroke="#000000" stroke-width="2.08333" stroke-linejoin="round" stroke-miterlimit="10" fill="none" fill-rule="evenodd"/><path d="M167.836 1631.4 406.14 1631.4" stroke="#000000" stroke-width="2.08333" stroke-linejoin="round" stroke-miterlimit="10" fill="none" fill-rule="evenodd"/><path d="M167.836 1867.62 406.14 1867.62" stroke="#000000" stroke-width="2.08333" stroke-linejoin="round" stroke-miterlimit="10" fill="none" fill-rule="evenodd"/><text font-family="Fira Code,Fira Code_MSFontService,sans-serif" font-weight="400" font-size="38" transform="translate(197.05 1682)">1<tspan x="78.7402" y="0">2</tspan><tspan x="157.48" y="0">3</tspan><tspan x="0" y="79">8</tspan><tspan x="157.48" y="79">4</tspan><tspan x="0" y="158">7</tspan><tspan x="78.7402" y="158">6</tspan><tspan x="157.48" y="158">5</tspan></text><path d="M607.929 1630.35 607.929 1868.66" stroke="#000000" stroke-width="2.08333" stroke-linejoin="round" stroke-miterlimit="10" fill="none" fill-rule="evenodd"/><path d="M686.669 1630.35 686.669 1868.66" stroke="#000000" stroke-width="2.08333" stroke-linejoin="round" stroke-miterlimit="10" fill="none" fill-rule="evenodd"/><path d="M528.147 1710.14 766.451 1710.14" stroke="#000000" stroke-width="2.08333" stroke-linejoin="round" stroke-miterlimit="10" fill="none" fill-rule="evenodd"/><path d="M528.147 1788.88 766.451 1788.88" stroke="#000000" stroke-width="2.08333" stroke-linejoin="round" stroke-miterlimit="10" fill="none" fill-rule="evenodd"/><path d="M529.188 1630.35 529.188 1868.66" stroke="#000000" stroke-width="2.08333" stroke-linejoin="round" stroke-miterlimit="10" fill="none" fill-rule="evenodd"/><path d="M765.409 1630.35 765.409 1868.66" stroke="#000000" stroke-width="2.08333" stroke-linejoin="round" stroke-miterlimit="10" fill="none" fill-rule="evenodd"/><path d="M528.147 1631.4 766.451 1631.4" stroke="#000000" stroke-width="2.08333" stroke-linejoin="round" stroke-miterlimit="10" fill="none" fill-rule="evenodd"/><path d="M528.147 1867.62 766.451 1867.62" stroke="#000000" stroke-width="2.08333" stroke-linejoin="round" stroke-miterlimit="10" fill="none" fill-rule="evenodd"/><text font-family="Fira Code,Fira Code_MSFontService,sans-serif" font-weight="400" font-size="38" transform="translate(557.361 1682)">1<tspan x="78.7402" y="0">2</tspan><tspan x="157.48" y="0">3</tspan><tspan x="0" y="79">7</tspan><tspan x="78.7402" y="79">8</tspan><tspan x="157.48" y="79">4</tspan><tspan x="78.7402" y="158">6</tspan><tspan x="157.48" y="158">5</tspan></text><path d="M288 1541.5 288 1621.14 287 1621.14 287 1541.5ZM293.75 1619.06 287.5 1631.56 281.25 1619.06Z" fill="#4472C4"/><path d="M287.621 1541.01 637.826 1628.55 637.584 1629.52 287.379 1541.99ZM637.199 1622.46 647.811 1631.56 634.168 1634.59Z" fill="#4472C4"/><text font-family="Fira Code,Fira Code_MSFontService,sans-serif" font-weight="400" font-size="38" transform="translate(420.098 1020)">4<tspan x="3.80481" y="327">5</tspan><tspan x="3.80481" y="653">6</tspan><tspan font-family="DengXian,DengXian_MSFontService,sans-serif" x="388.079" y="-727">3</tspan><tspan font-family="DengXian,DengXian_MSFontService,sans-serif" x="569.958" y="-727">6</tspan><tspan font-family="DengXian,DengXian_MSFontService,sans-serif" x="769.724" y="-727">6</tspan><tspan font-family="DengXian,DengXian_MSFontService,sans-serif" x="213.257" y="-400">4</tspan><tspan font-family="DengXian,DengXian_MSFontService,sans-serif" x="388.079" y="-400">5</tspan><tspan font-family="DengXian,DengXian_MSFontService,sans-serif" x="27.7216" y="-400">4</tspan><tspan font-family="DengXian,DengXian_MSFontService,sans-serif" x="-143.249" y="-74">3</tspan><tspan font-family="DengXian,DengXian_MSFontService,sans-serif" x="36.1352" y="-74">5</tspan><tspan font-family="DengXian,DengXian_MSFontService,sans-serif" x="-143.87" y="253">2</tspan><tspan font-family="DengXian,DengXian_MSFontService,sans-serif" x="-143.87" y="579">0</tspan><tspan font-family="DengXian,DengXian_MSFontService,sans-serif" x="36.1352" y="578">3</tspan></text></g></svg>